<svg id="Capa_1" enable-background="new 41.64 164.945 512 512" height="512" viewBox="41.64 164.945 512 512" width="512" xmlns="http://www.w3.org/2000/svg"><g><g><g><path d="m297.64 347.017c-57.844 0-104.898 47.054-104.898 104.898 0 37.413 19.621 71.17 52.489 90.301 4.615 2.688 7.453 7.623 7.453 12.959v31.608h29.97v-29.971c0-8.271 6.714-14.985 14.986-14.985s14.984 6.715 14.984 14.985v29.971h29.973v-31.608c0-5.336 2.837-10.271 7.452-12.959 32.867-19.131 52.488-52.888 52.488-90.301.001-57.844-47.052-104.898-104.897-104.898zm-19.371 145.469c-5.854 5.845-15.345 5.845-21.2 0l-29.971-29.972c-5.845-5.854-5.845-15.345 0-21.198 5.854-5.845 15.345-5.845 21.199 0l29.971 29.971c5.845 5.854 5.845 15.346.001 21.199zm107.706-33.868-29.972 59.943c-3.695 7.392-12.698 10.409-20.111 6.703-7.402-3.707-10.4-12.707-6.703-20.11l19.133-38.253h-35.697c-11.53 0-18.251-11.986-13.405-21.689l29.97-59.942c3.706-7.403 12.709-10.4 20.111-6.704 7.403 3.707 10.399 12.708 6.703 20.111l-19.12 38.253h35.685c10.431-.001 18.725 10.941 13.406 21.688zm91.49-141.571c-8.281 0-14.986-6.714-14.986-14.986v-121.882c0-8.272-6.713-14.985-14.984-14.985h-44.957v14.985c0 57.843-47.053 104.898-104.897 104.898s-104.898-47.055-104.898-104.898v-14.985h-44.967c-8.272 0-14.985 6.713-14.985 14.985 0 .04 0 .069.009.11l.01 121.771c-.01 4.136-1.688 7.893-4.396 10.6-2.718 2.708-6.464 4.387-10.6 4.387-8.272 0-14.986 6.713-14.986 14.985v329.68c0 8.271 6.714 14.985 14.986 14.985h359.65c8.271 0 14.986-6.714 14.986-14.985v-329.68c.002-8.272-6.713-14.985-14.985-14.985zm-104.897 246.421v38.303c0 8.272-6.714 14.985-14.985 14.985h-119.884c-8.272 0-14.986-6.713-14.986-14.985v-38.303c-37.083-24.886-59.942-66.177-59.942-111.552 0-74.369 60.501-134.869 134.869-134.869s134.87 60.5 134.87 134.869c0 45.375-22.858 86.666-59.942 111.552zm-149.855-398.274v14.985c0 41.32 33.618 74.927 74.927 74.927 41.311 0 74.928-33.606 74.928-74.927v-14.985z"/></g></g></g></svg>